<?xml version="1.0" encoding="UTF-8"?>
<svg xmlns="http://www.w3.org/2000/svg" xmlns:xlink="http://www.w3.org/1999/xlink" width="32pt" height="32pt" viewBox="0 0 32 32" version="1.1">
<g id="surface1">
<path style=" stroke:none;fill-rule:nonzero;fill:rgb(0%,0%,0%);fill-opacity:1;" d="M 29.609375 19.25 L 27.25 17.65625 L 27.25 12.875 L 29.609375 11.316406 C 29.738281 11.21875 29.832031 11.089844 29.832031 10.933594 C 29.832031 10.773438 29.738281 10.613281 29.609375 10.550781 L 17.464844 2.390625 C 17.308594 2.292969 17.082031 2.292969 16.925781 2.390625 L 1.945312 12.398438 C 1.878906 12.429688 1.847656 12.460938 1.816406 12.527344 C 1.816406 12.527344 1.816406 12.527344 1.816406 12.558594 C 1.753906 12.652344 1.753906 12.71875 1.753906 12.8125 L 1.753906 21.578125 C 1.753906 21.738281 1.847656 21.894531 1.976562 21.960938 L 14.121094 30.054688 C 14.214844 30.121094 14.277344 30.152344 14.375 30.152344 C 14.46875 30.152344 14.566406 30.121094 14.628906 30.054688 L 29.640625 20.046875 C 29.769531 19.953125 29.863281 19.824219 29.863281 19.664062 C 29.832031 19.472656 29.738281 19.316406 29.609375 19.25 Z M 17.210938 3.378906 L 28.492188 10.902344 L 26.644531 12.113281 C 26.550781 12.144531 26.453125 12.207031 26.390625 12.269531 L 14.34375 20.304688 L 5.289062 14.277344 C 5.257812 14.246094 5.226562 14.246094 5.226562 14.214844 L 3.058594 12.78125 Z M 5.449219 15.554688 L 14.054688 21.289062 C 14.214844 21.386719 14.4375 21.386719 14.597656 21.289062 L 26.292969 13.480469 L 26.292969 17.402344 L 14.40625 25.242188 L 5.449219 19.507812 Z M 14.34375 29.066406 L 2.675781 21.289062 L 2.675781 13.707031 L 4.527344 14.917969 L 4.527344 19.761719 C 4.527344 19.921875 4.621094 20.078125 4.75 20.175781 L 14.183594 26.230469 C 14.246094 26.292969 14.34375 26.292969 14.4375 26.292969 C 14.535156 26.292969 14.628906 26.261719 14.691406 26.230469 L 26.613281 18.390625 L 28.492188 19.664062 Z M 14.34375 29.066406 "/>
<path style=" stroke:none;fill-rule:nonzero;fill:rgb(0%,0%,0%);fill-opacity:1;" d="M 15.140625 7.746094 L 20.8125 11.632812 C 20.910156 11.695312 21.003906 11.730469 21.066406 11.730469 C 21.226562 11.730469 21.355469 11.664062 21.449219 11.507812 C 21.609375 11.28125 21.546875 10.996094 21.324219 10.835938 L 15.679688 6.949219 C 15.457031 6.789062 15.171875 6.851562 15.011719 7.074219 C 14.851562 7.296875 14.917969 7.585938 15.140625 7.746094 Z M 15.140625 7.746094 "/>
</g>
</svg>
